<?xml version="1.0" encoding="iso-8859-1"?>
<!-- Generator: Adobe Illustrator 19.0.0, SVG Export Plug-In . SVG Version: 6.00 Build 0)  -->
<svg xmlns="http://www.w3.org/2000/svg" xmlns:xlink="http://www.w3.org/1999/xlink" version="1.1" id="Layer_1" x="0px" y="0px" viewBox="0 0 512 512" style="enable-background:new 0 0 512 512;" xml:space="preserve" width="512" height="512">
<g id="casserole">
	<g id="fill_45_">
		
			<ellipse transform="matrix(0.822 0.5694 -0.5694 0.822 129.6764 -62.8399)" style="fill:#FFDE55;" cx="165.373" cy="176.043" rx="52.309" ry="68.552"/>
		<path style="fill:#FFCD00;" d="M136.44,237.474c23.151,7.866,53.241-4.648,71.932-31.631    c21.559-31.122,19.784-69.688-3.964-86.139c-4.628-3.206-9.754-5.322-15.16-6.442C165.101,137.726,140.459,177.091,136.44,237.474    z"/>
		
			<ellipse transform="matrix(0.822 0.5694 -0.5694 0.822 144.3549 -122.9064)" style="fill:#FFEB99;" cx="268.809" cy="169.493" rx="56.286" ry="73.764"/>
		<path style="fill:#D7F3FF;" d="M96.078,39.091c-6.516,2.947-11.595,7.638-14.995,13.234c-3.643,5.996-10.306,9.621-17.319,9.422    c-6.545-0.186-13.243,1.531-19.257,5.4c-13.99,9.001-19.328,27.233-12.406,42.359c8.235,17.996,29.805,24.978,46.892,15.682    c5.276-2.87,9.479-6.943,12.456-11.693c3.91-6.237,10.681-9.921,18.041-9.815c5.605,0.08,11.308-1.236,16.584-4.106    c17.087-9.296,22.943-31.198,12.307-47.888C129.442,37.658,111.235,32.235,96.078,39.091z"/>
		<path style="fill:#BDEBFF;" d="M134.474,63.44c-5.276,2.87-10.978,4.187-16.583,4.106c-7.36-0.105-14.132,3.579-18.041,9.815    c-2.978,4.75-6.846,9.549-12.456,11.692C53.719,101.917,39.841,71.83,39.553,71.05c-10.202,9.734-13.484,25.273-7.452,38.456    c8.235,17.996,29.805,24.978,46.892,15.682c5.276-2.87,9.479-6.943,12.456-11.692c3.91-6.237,10.681-9.921,18.041-9.815    c5.605,0.08,11.308-1.236,16.584-4.106c14.925-8.12,21.28-25.858,15.56-41.34C139.534,60.231,137.141,61.99,134.474,63.44z"/>
		<circle style="fill:#D7F3FF;" cx="194.262" cy="37.116" r="18.917"/>
		<path style="fill:#FFDE55;" d="M226.805,230.13c25.554,17.702,65.075,4.904,88.273-28.585    c13.826-19.959,18.729-42.761,15.028-61.676c-35.178,0.557-65.215,8.865-70.092-10.567c-2.086-8.313-2.016-15.988-0.653-22.902    c-13.693,5.949-26.786,16.554-36.822,31.042C199.342,170.93,201.251,212.428,226.805,230.13z"/>
		<path style="fill:#898890;" d="M477.895,269.862H334.271c-14.633,0-26.605-11.972-26.605-26.605l0,0    c0-14.633,11.972-26.605,26.605-26.605h143.624c14.633,0,26.605,11.972,26.605,26.605l0,0    C504.5,257.89,492.528,269.862,477.895,269.862z"/>
		<path style="fill:#6B6A72;" d="M440.011,216.652h-105.74c-14.633,0-26.605,11.972-26.605,26.605l0,0    c0,14.633,11.972,26.605,26.605,26.605h95.966C429.924,246.763,434.765,229.008,440.011,216.652z"/>
		<path style="fill:#5AAA4F;" d="M373.244,286.852h-57.889v-87.191h57.889c16.183,0,29.302,13.119,29.302,29.302v28.587    C402.545,273.734,389.427,286.852,373.244,286.852z"/>
		<path style="fill:#92DD7A;" d="M292.168,453.435H85.23c-28.473,0-51.555-23.082-51.555-51.555V195.526h310.048V401.88    C343.723,430.353,320.641,453.435,292.168,453.435z"/>
		<path style="fill:#7EC66A;" d="M33.675,195.526V401.88c0,28.473,23.082,51.555,51.555,51.555h105.014    c-23.667-33.786-32.289-74.681-34.763-108.626c-2.592-35.565,22.592-67.227,57.81-72.824    c71.119-11.303,130.432-39.283,130.432-39.283v-37.176H33.675z"/>
		<path style="fill:#D8D7DA;" d="M338.318,232.701H40.539c-18.172,0-33.039-14.868-33.039-33.039l0,0    c0-18.172,14.868-33.04,33.039-33.04h297.779c18.172,0,33.039,14.868,33.039,33.04l0,0    C371.358,217.833,356.49,232.701,338.318,232.701z"/>
		<path style="fill:#C6C5CA;" d="M119.079,199.662L119.079,199.662c0-18.172,14.868-33.04,33.039-33.04H40.539    c-18.172,0-33.039,14.868-33.039,33.039v0c0,18.172,14.868,33.039,33.039,33.039h111.579    C133.947,232.701,119.079,217.834,119.079,199.662z"/>
		<path style="fill:#FFB192;" d="M138.202,462.895c0,17.069-13.837,30.906-30.906,30.906c-17.069,0-30.906-13.837-30.906-30.906    s13.837-65.797,30.906-65.797C124.365,397.098,138.202,445.826,138.202,462.895z"/>
		<path style="fill:#FF9478;" d="M105.534,462.895c0-11.799,6.613-38.724,16.334-54.226c-4.341-6.923-9.302-11.571-14.572-11.571    c-17.069,0-30.906,48.728-30.906,65.796c0,17.069,13.837,30.906,30.906,30.906c5.27,0,10.23-1.322,14.572-3.648    C112.148,484.945,105.534,474.694,105.534,462.895z"/>
		<path style="fill:#FFB192;" d="M219.605,462.895c0,17.069-13.837,30.906-30.906,30.906c-17.069,0-30.906-13.837-30.906-30.906    s13.837-65.797,30.906-65.797C205.768,397.098,219.605,445.826,219.605,462.895z"/>
		<path style="fill:#FFB192;" d="M301.008,462.895c0,17.069-13.837,30.906-30.906,30.906s-30.906-13.837-30.906-30.906    s13.837-65.797,30.906-65.797S301.008,445.826,301.008,462.895z"/>
		<path style="fill:#FF9478;" d="M186.937,462.895c0-11.799,6.613-38.724,16.334-54.226c-4.341-6.923-9.302-11.571-14.572-11.571    c-17.069,0-30.906,48.728-30.906,65.796c0,17.069,13.837,30.906,30.906,30.906c5.27,0,10.23-1.322,14.572-3.648    C193.55,484.945,186.937,474.694,186.937,462.895z"/>
		<path style="fill:#FF9478;" d="M268.339,462.895c0-11.799,6.613-38.724,16.334-54.226c-4.341-6.923-9.302-11.571-14.572-11.571    c-17.069,0-30.906,48.728-30.906,65.796c0,17.069,13.837,30.906,30.906,30.906c5.27,0,10.23-1.322,14.572-3.648    C274.953,484.945,268.339,474.694,268.339,462.895z"/>
	</g>
	<g id="stroke_44_">
		<path d="M82.577,131.776c6.113-3.566,11.483-8.325,15.228-14.297c2.515-4.013,6.838-6.349,11.579-6.3    c7.035,0.126,14.059-1.634,20.274-5.018c10.015-5.447,17.394-14.906,20.245-25.949c2.891-11.199,1.045-22.762-5.196-32.557    c-10.94-17.168-33.173-23.788-51.719-15.399c-7.658,3.464-13.991,9.057-18.314,16.174c-2.255,3.713-6.338,5.917-10.697,5.819    c-8.316-0.227-16.459,2.043-23.527,6.589C23.331,71.853,16.81,94.117,25.282,112.626    C36.249,136.587,61.327,144.173,82.577,131.776z M48.565,73.454c4.303-2.769,9.212-4.221,14.244-4.221    c0.247,0,0.495,0.004,0.742,0.011c9.717,0.242,18.894-4.716,23.942-13.026c2.747-4.521,6.785-8.081,11.676-10.293    c11.792-5.335,25.931-1.124,32.887,9.792c3.982,6.25,5.162,13.618,3.322,20.747c-1.842,7.135-6.419,13.003-12.89,16.522    c-3.957,2.154-8.408,3.248-12.891,3.195c-10.049-0.144-19.182,4.841-24.502,13.33c-2.378,3.792-5.728,6.935-9.687,9.089    c-6.469,3.52-13.883,4.177-20.874,1.845c-6.985-2.328-12.53-7.321-15.613-14.06C33.535,94.614,37.681,80.457,48.565,73.454z"/>
		<path d="M194.262,63.532c14.566,0,26.417-11.851,26.417-26.416c0-14.566-11.851-26.417-26.417-26.417    s-26.417,11.851-26.417,26.417C167.845,51.682,179.696,63.532,194.262,63.532z M194.262,25.699    c6.295,0,11.417,5.122,11.417,11.417s-5.122,11.416-11.417,11.416c-6.295,0-11.417-5.121-11.417-11.416    S187.967,25.699,194.262,25.699z"/>
		<path d="M477.895,209.152h-73.662c-5.699-8.884-15.105-15.165-26.021-16.645c-3.379-18.885-19.869-33.28-39.688-33.379    c1.958-23.725-6.577-44.754-23.441-56.436c-28.914-20.029-73.193-6.355-98.71,30.479c-5.593,8.075-10.008,16.913-12.999,25.951    H123.33c1.546-2.941,3.28-5.814,5.207-8.596c17.684-25.526,47.487-37.351,67.853-26.915c3.687,1.889,8.207,0.432,10.095-3.255    c1.889-3.687,0.432-8.206-3.254-10.095c-27.367-14.022-64.779-0.385-87.024,31.724c-3.771,5.444-6.936,11.191-9.464,17.137H40.54    c-22.354,0-40.54,18.186-40.54,40.54c0,17.297,10.892,32.09,26.175,37.901V401.88c0,26.73,17.714,49.711,42.91,56.812    c-0.126,1.52-2.611,42.609,38.212,42.609s38.39-39.686,38.36-40.365h4.682c-0.03,0.679-0.757,40.365,38.36,40.365    s38.39-39.686,38.36-40.365h4.682c-0.03,0.679-1.057,40.365,38.36,40.365s38.34-41.108,38.216-42.616    c25.104-7.13,42.906-30.347,42.906-56.805V294.353h22.021c20.292,0,36.802-16.509,36.802-36.802c0,0-0.118-31.822-0.325-33.399    h68.174c10.535,0,19.105,8.57,19.105,19.105c0,10.535-8.57,19.105-19.105,19.105h-46.216c-4.142,0-7.5,3.357-7.5,7.5    s3.358,7.5,7.5,7.5h46.216c18.806,0,34.105-15.3,34.105-34.105C512,224.451,496.701,209.152,477.895,209.152z M228.705,141.712    c20.807-30.034,55.725-42.008,77.837-26.69c12.639,8.755,18.816,25.235,16.918,44.101H219.346    C221.758,153.085,224.904,147.199,228.705,141.712z M15,199.662c0-14.083,11.457-25.54,25.54-25.54h297.779    c14.082,0,25.539,11.457,25.539,25.54c0,14.082-11.457,25.539-25.539,25.539H40.54C26.457,225.201,15,213.744,15,199.662z     M188.699,486.301c-12.906,0-23.406-10.5-23.406-23.406c0-7.233,3.194-22.89,8.538-36.569    c6.963-17.823,13.094-21.727,14.868-21.727s7.905,3.903,14.868,21.727c5.345,13.68,8.538,29.336,8.538,36.569    C212.105,475.801,201.605,486.301,188.699,486.301z M270.102,486.301c-12.906,0-23.406-10.5-23.406-23.406    c0-7.233,3.193-22.89,8.538-36.569c6.963-17.823,13.093-21.727,14.868-21.727c1.774,0,7.905,3.903,14.868,21.727    c5.344,13.68,8.538,29.336,8.538,36.569C293.508,475.801,283.008,486.301,270.102,486.301z M305.882,443.75    c-1.703-7.567-4.124-15.674-6.94-22.884c-8.106-20.747-17.809-31.268-28.84-31.268c-11.031,0-20.733,10.521-28.839,31.268    c-3.09,7.909-5.705,16.898-7.416,25.069h-8.891c-1.712-8.171-4.327-17.161-7.416-25.069    c-8.106-20.747-17.809-31.268-28.839-31.268c-11.031,0-20.733,10.521-28.84,31.268c-3.09,7.909-5.705,16.898-7.417,25.069h-8.891    c-1.712-8.171-4.327-17.161-7.416-25.069c-8.106-20.747-17.809-31.268-28.839-31.268c-8.462,0-16.207,6.273-23.018,18.646    c-1.997,3.629-0.675,8.19,2.953,10.188c3.629,1.999,8.189,0.676,10.188-2.953c4.728-8.589,8.434-10.881,9.878-10.881    c1.774,0,7.905,3.903,14.868,21.727c5.345,13.68,8.538,29.336,8.538,36.569c0,12.906-10.5,23.406-23.406,23.406    c-12.906,0-23.406-10.5-23.406-23.406c0-4.392,1.138-11.571,3.045-19.204c1.004-4.018-1.44-8.09-5.458-9.094    c-4.018-1.002-7.52,1.948-9.971,9.162c-17.899-5.815-30.332-22.531-30.332-41.879V240.201h295.048V401.88    C336.223,421.033,323.725,437.906,305.882,443.75z M395.045,257.551c0,12.021-9.78,21.802-21.802,21.802h-22.021v-41.27    c13.568-4.57,23.951-16.127,26.831-30.38c9.714,2.197,16.992,10.892,16.992,21.26V257.551z"/>
	</g>
</g>















</svg>
