<svg height="480pt" viewBox="0 -40 480 480" width="480pt" xmlns="http://www.w3.org/2000/svg"><path d="m24 8h432c8.835938 0 16 7.164062 16 16v320c0 8.835938-7.164062 16-16 16h-432c-8.835938 0-16-7.164062-16-16v-320c0-8.835938 7.164062-16 16-16zm0 0" fill="#d8d7da"/><g fill="#ffa733"><path d="m440 120c0 8.835938-7.164062 16-16 16s-16-7.164062-16-16 7.164062-16 16-16 16 7.164062 16 16zm0 0"/><path d="m440 184c0 8.835938-7.164062 16-16 16s-16-7.164062-16-16 7.164062-16 16-16 16 7.164062 16 16zm0 0"/><path d="m440 248c0 8.835938-7.164062 16-16 16s-16-7.164062-16-16 7.164062-16 16-16 16 7.164062 16 16zm0 0"/></g><path d="m376 360h48v32h-48zm0 0" fill="#898890"/><path d="m72 56h288c8.835938 0 16 7.164062 16 16v224c0 8.835938-7.164062 16-16 16h-288c-8.835938 0-16-7.164062-16-16v-224c0-8.835938 7.164062-16 16-16zm0 0" fill="#78b9eb"/><path d="m312 216-16 32h-160l-16-32zm0 0" fill="#ffa733"/><path d="m56 360h48v32h-48zm0 0" fill="#898890"/><path d="m56 360h48v16h-48zm0 0" fill="#787680"/><path d="m376 360h48v16h-48zm0 0" fill="#787680"/><path d="m456 0h-432c-13.253906 0-24 10.746094-24 24v320c0 13.253906 10.746094 24 24 24h24v24c0 4.417969 3.582031 8 8 8h48c4.417969 0 8-3.582031 8-8v-24h256v24c0 4.417969 3.582031 8 8 8h48c4.417969 0 8-3.582031 8-8v-24h24c13.253906 0 24-10.746094 24-24v-320c0-13.253906-10.746094-24-24-24zm-360 384h-32v-16h32zm320 0h-32v-16h32zm48-40c0 4.417969-3.582031 8-8 8h-432c-4.417969 0-8-3.582031-8-8v-320c0-4.417969 3.582031-8 8-8h432c4.417969 0 8 3.582031 8 8zm0 0"/><path d="m360 48h-288c-13.253906 0-24 10.746094-24 24v224c0 13.253906 10.746094 24 24 24h288c13.253906 0 24-10.746094 24-24v-224c0-13.253906-10.746094-24-24-24zm8 248c0 4.417969-3.582031 8-8 8h-288c-4.417969 0-8-3.582031-8-8v-224c0-4.417969 3.582031-8 8-8h288c4.417969 0 8 3.582031 8 8zm0 0"/><path d="m424 96c-13.253906 0-24 10.746094-24 24s10.746094 24 24 24 24-10.746094 24-24-10.746094-24-24-24zm0 32c-4.417969 0-8-3.582031-8-8s3.582031-8 8-8 8 3.582031 8 8-3.582031 8-8 8zm0 0"/><path d="m424 160c-13.253906 0-24 10.746094-24 24s10.746094 24 24 24 24-10.746094 24-24-10.746094-24-24-24zm0 32c-4.417969 0-8-3.582031-8-8s3.582031-8 8-8 8 3.582031 8 8-3.582031 8-8 8zm0 0"/><path d="m424 224c-13.253906 0-24 10.746094-24 24s10.746094 24 24 24 24-10.746094 24-24-10.746094-24-24-24zm0 32c-4.417969 0-8-3.582031-8-8s3.582031-8 8-8 8 3.582031 8 8-3.582031 8-8 8zm0 0"/><path d="m400 64h48v16h-48zm0 0"/><path d="m344 80h-32v16h24v24h16v-32c0-4.417969-3.582031-8-8-8zm0 0"/><path d="m336 136h16v16h-16zm0 0"/><path d="m96 224h19.054688l13.785156 27.574219c1.355468 2.714843 4.128906 4.425781 7.160156 4.425781h160c3.046875.015625 5.839844-1.699219 7.199219-4.425781l13.746093-27.574219h19.054688v-16h-240zm195.054688 16h-150.109376l-8-16h166.109376zm0 0"/><path d="m203.199219 192h16c-.058594-3.195312 1.117187-6.292969 3.289062-8.640625 8.402344-10.527344 8.402344-25.46875 0-36-4.394531-4.941406-4.394531-12.390625 0-17.335937 4.15625-5.078126 6.390625-11.460938 6.3125-18.023438h-16c.058594 3.207031-1.121093 6.308594-3.296875 8.664062-8.390625 10.53125-8.390625 25.46875 0 36 4.390625 4.9375 4.390625 12.375 0 17.3125-4.152344 5.082032-6.386718 11.460938-6.304687 18.023438zm0 0"/><path d="m251.199219 192h16c-.058594-3.195312 1.117187-6.292969 3.289062-8.640625 8.402344-10.527344 8.402344-25.46875 0-36-4.394531-4.941406-4.394531-12.390625 0-17.335937 4.15625-5.078126 6.390625-11.460938 6.3125-18.023438h-16c.058594 3.207031-1.121093 6.308594-3.296875 8.664062-8.390625 10.53125-8.390625 25.46875 0 36 4.390625 4.9375 4.390625 12.375 0 17.3125-4.152344 5.082032-6.386718 11.460938-6.304687 18.023438zm0 0"/><path d="m155.199219 192h16c-.058594-3.195312 1.117187-6.292969 3.289062-8.640625 8.402344-10.527344 8.402344-25.46875 0-36-4.394531-4.941406-4.394531-12.390625 0-17.335937 4.15625-5.078126 6.390625-11.460938 6.3125-18.023438h-16c.058594 3.207031-1.121093 6.308594-3.296875 8.664062-8.390625 10.53125-8.390625 25.46875 0 36 4.390625 4.9375 4.390625 12.375 0 17.3125-4.152344 5.082032-6.386718 11.460938-6.304687 18.023438zm0 0"/></svg>